<?xml version="1.0" encoding="utf-8"?>
<!-- Generator: Adobe Illustrator 21.1.0, SVG Export Plug-In . SVG Version: 6.00 Build 0)  -->
<svg version="1.1" id="Layer_1" xmlns="http://www.w3.org/2000/svg" xmlns:xlink="http://www.w3.org/1999/xlink" x="0px" y="0px"
	 viewBox="0 0 339.6 364.3" style="enable-background:new 0 0 339.6 364.3;" xml:space="preserve">
<style type="text/css">
	.st0{fill:none;}
	.st1{enable-background:new    ;}
</style>
<rect x="-18.7" y="13.1" class="st0" width="373.8" height="373.2"/>
<g class="st1">
	<path d="M256.4,90.8l-35.5,122.7c-3.8,13-5.7,22.9-5.7,29.7c0,3.4,1.2,6.7,3.7,10c2.5,3.3,6.1,4.9,10.7,4.9
		c19.5,0,38.3-12.8,56.3-38.3c18-25.5,27-55.3,27-89.5c0-34.5-11.8-63.1-35.4-85.8c-23.6-22.7-53.9-34.1-91-34.1
		C138.1,10.4,98,28.9,66.4,66s-47.5,80.5-47.5,130.3c0,46.1,14.3,83.6,43,112.6c28.6,29,65.2,43.5,109.8,43.5
		c34,0,64.7-9.1,92.3-27.2s49.1-45.1,64.6-80.8h11.1c-12.6,38-34.7,67.5-66.1,88.5c-31.4,21-65.8,31.4-103,31.4
		c-48.6,0-89.1-16.4-121.7-49.1C16.3,282.4,0,241.1,0,191.2c0-53.9,18.1-99.2,54.3-136C90.5,18.4,134,0,184.8,0
		c43,0,77,12.8,102.1,38.4c25.1,25.6,37.6,57.5,37.6,95.6c0,35.2-10.1,66.9-30.3,95.3c-20.2,28.4-46.1,42.6-77.7,42.6
		c-19.7,0-29.5-8.9-29.5-26.8c0-8.7,1.2-18,3.5-27.9l-0.8-0.8c-28.8,37-54.2,55.5-76.4,55.5c-10.5,0-19-4.6-25.5-13.9
		c-6.4-9.2-9.7-19.7-9.7-31.3c0-30.2,12.4-60.6,37.1-91.3c24.7-30.7,48.2-46,70.5-46c18.2,0,29.3,9.1,33.2,27.3h0.8l5.9-21.7
		L256.4,90.8z M212.1,126.8c0-7.8-2.2-14.5-6.7-19.9s-10.3-8.2-17.3-8.2c-17.2,0-34.7,15.4-52.5,46.2
		c-17.8,30.8-26.8,56.1-26.8,75.9c0,7.2,2.1,13.5,6.4,19.1c4.3,5.6,9.6,8.4,16,8.4c12.6,0,26.3-8,41.1-24c14.8-16,25.1-33.5,31-52.3
		C209.2,153,212.1,138,212.1,126.8z"/>
</g>
</svg>
