<?xml version="1.0" encoding="utf-8"?>
<!-- Generator: Adobe Illustrator 21.1.0, SVG Export Plug-In . SVG Version: 6.00 Build 0)  -->
<svg version="1.1" xmlns="http://www.w3.org/2000/svg" xmlns:xlink="http://www.w3.org/1999/xlink" x="0px" y="0px"
	 viewBox="0 0 458.3 446.3" style="enable-background:new 0 0 458.3 446.3;" xml:space="preserve">
<g id="github_x5F_black">
	<g>
		<path d="M457.8,229c0-126.3-102.4-228.6-228.6-228.6S0.5,102.7,0.5,229c0,100.2,64.5,185.4,154.2,216.2c5.5-3.9,11.8-8.8,11.8-17
			c0-12.6-0.3-44.9-0.3-44.9s-9.9,1.7-24.1,1.7c-35.7,0-47-22.6-52.3-35.3c-7-16.5-16.1-24.3-25.7-30.5c-5.9-3.8-7.3-8.3-0.4-9.6
			c31.6-5.9,39.7,35.6,60.8,42.3c15.1,4.7,34.4,2.7,44-3.5c1.3-12.7,10.5-23.7,18.1-29.4c-53.7-5.1-85.5-23.7-102-53.5l-1.8-3.3
			l-4.1-9.5l-1.2-3.4c-5.2-15.1-7.5-32.4-7.5-51.8c0-34.3,10.8-47.3,25.2-65.6c-11-39.2,4-65.9,4-65.9s23.2-4.8,67.1,26.5
			c23.8-10.1,87.2-11,117.3-2.3c18.4-12.1,52.1-29.3,65.7-24.5c3.7,5.9,11.6,23.1,4.8,60.8c4.6,8.3,28.6,25.9,28.7,75.8
			c-0.4,18.4-2.3,33.9-5.9,47l-2,6.7c0,0-1.1,3.2-2.4,6.2l-1.4,3.3c-15.9,34.8-48.6,47.8-101.3,53.1c17.1,10.7,22,24.1,22,60.5
			s-0.5,41.2-0.4,49.6c0.1,7.4,6,12.7,11.3,16.7C392.9,414.9,457.8,329.5,457.8,229z"/>
	</g>
</g>
<g id="github_x5F_white">
</g>
<g id="github_x5F_blue_1_">
</g>
</svg>
