<?xml version="1.0" encoding="utf-8"?>
<!-- Generator: Adobe Illustrator 21.1.0, SVG Export Plug-In . SVG Version: 6.00 Build 0)  -->
<svg version="1.1" id="Layer_1" xmlns="http://www.w3.org/2000/svg" xmlns:xlink="http://www.w3.org/1999/xlink" x="0px" y="0px"
	 viewBox="0 0 253.7 163.3" style="enable-background:new 0 0 253.7 163.3;" xml:space="preserve">
<style type="text/css">
	.st0{fill-rule:evenodd;clip-rule:evenodd;fill:#231F20;}
</style>
<g>
	<path class="st0" d="M81.3,70.5v27.3h45.2c-1.8,11.7-13.7,34.4-45.2,34.4c-27.2,0-49.4-22.5-49.4-50.3c0-27.8,22.2-50.3,49.4-50.3
		c15.5,0,25.8,6.6,31.7,12.3L134.7,23C120.8,10,102.8,2.2,81.3,2.2c-44,0-79.6,35.6-79.6,79.6c0,44,35.6,79.6,79.6,79.6
		c46,0,76.4-32.3,76.4-77.8c0-5.2-0.6-9.2-1.3-13.2H81.3L81.3,70.5L81.3,70.5z"/>
	<polygon class="st0" points="252,70.5 229.2,70.5 229.2,47.7 206.5,47.7 206.5,70.5 183.7,70.5 183.7,93.2 206.5,93.2 206.5,116 
		229.2,116 229.2,93.2 252,93.2 	"/>
</g>
</svg>
