<?xml version="1.0" encoding="utf-8"?>
<!-- Generator: Adobe Illustrator 21.1.0, SVG Export Plug-In . SVG Version: 6.00 Build 0)  -->
<svg version="1.1" id="Layer_1" xmlns="http://www.w3.org/2000/svg" xmlns:xlink="http://www.w3.org/1999/xlink" x="0px" y="0px"
	 viewBox="0 0 145.5 145.8" style="enable-background:new 0 0 145.5 145.8;" xml:space="preserve">
<style type="text/css">
	.st0{fill:#231F20;}
	.st1{fill:#FFFFFF;}
</style>
<g>
	<g>
		<path class="st0" d="M134.1,0.9H11.3C5.5,0.9,0.7,5.6,0.7,11.3v123.2c0,5.7,4.8,10.4,10.6,10.4h122.7c5.9,0,10.7-4.7,10.7-10.4
			V11.3C144.7,5.6,139.9,0.9,134.1,0.9z"/>
		<path class="st1" d="M22.1,54.9h21.4v68.7H22.1V54.9z M32.8,20.8c6.8,0,12.4,5.5,12.4,12.4c0,6.8-5.5,12.4-12.4,12.4
			c-6.8,0-12.4-5.5-12.4-12.4C20.4,26.3,25.9,20.8,32.8,20.8"/>
		<path class="st1" d="M56.8,54.9h20.5v9.4h0.3c2.9-5.4,9.8-11.1,20.2-11.1c21.6,0,25.6,14.2,25.6,32.7v37.7h-21.3V90.2
			c0-8-0.1-18.2-11.1-18.2c-11.1,0-12.8,8.7-12.8,17.6v34H56.8V54.9z"/>
	</g>
</g>
</svg>
