<?xml version="1.0" encoding="utf-8"?>
<!-- Generator: Adobe Illustrator 21.1.0, SVG Export Plug-In . SVG Version: 6.00 Build 0)  -->
<svg version="1.1" id="artwork" xmlns="http://www.w3.org/2000/svg" xmlns:xlink="http://www.w3.org/1999/xlink" x="0px" y="0px"
	 viewBox="0 0 83.5 91.6" style="enable-background:new 0 0 83.5 91.6;" xml:space="preserve">
<style type="text/css">
	.st0{fill:#010101;}
</style>
<g>
	<path class="st0" d="M47,42.3l12.1-12.1L10.7,2.7C9,1.7,7.5,1.4,6.2,1.6L47,42.3z"/>
	<path class="st0" d="M77.9,40.9l-14.8-8.4l-13,13L63.6,59l14.3-8.1C82.8,48.1,82.8,43.6,77.9,40.9z"/>
	<path class="st0" d="M2.6,4.3C2.2,5.2,1.9,6.4,1.9,7.7V84c0,1.1,0.2,2.1,0.5,2.9l41.4-41.4L2.6,4.3z"/>
	<path class="st0" d="M47,48.7L5.6,90.1c1.4,0.4,3.2,0.1,5-1l48.9-27.8L47,48.7z"/>
</g>
</svg>
