<?xml version="1.0" encoding="utf-8"?>
<!-- Generator: Adobe Illustrator 21.1.0, SVG Export Plug-In . SVG Version: 6.00 Build 0)  -->
<svg version="1.1" id="Layer_1" xmlns="http://www.w3.org/2000/svg" xmlns:xlink="http://www.w3.org/1999/xlink" x="0px" y="0px"
	 viewBox="0 0 2416 3684" style="enable-background:new 0 0 2416 3684;" xml:space="preserve">
<style type="text/css">
	.st0{fill:#5C5C5C;}
</style>
<g>
	<g>
		<g>
			<path d="M434,1080h-44c-6.6,0-12-5.4-12-12V572c0-6.6,5.4-12,12-12h44c6.6,0,12,5.4,12,12v496C446,1074.6,440.6,1080,434,1080z"
				/>
			<path d="M1950,1304h-44c-6.6,0-12-5.4-12-12v-272c0-6.6,5.4-12,12-12h44c6.6,0,12,5.4,12,12v272
				C1962,1298.6,1956.6,1304,1950,1304z"/>
			<path d="M434,1600h-44c-6.6,0-12-5.4-12-12v-272c0-6.6,5.4-12,12-12h44c6.6,0,12,5.4,12,12v272C446,1594.6,440.6,1600,434,1600z"
				/>
		</g>
		<path d="M1776,3376H564c-83.6,0-152-68.4-152-152V384c0-83.6,68.4-152,152-152h1212c83.6,0,152,68.4,152,152v2840
			C1928,3307.6,1859.6,3376,1776,3376z"/>
	</g>
	<path class="st0" d="M1800,3284H540c-49.7,0-90-40.3-90-90V414c0-49.7,40.3-90,90-90h1260c49.7,0,90,40.3,90,90v2780
		C1890,3243.7,1849.7,3284,1800,3284z"/>
</g>
</svg>
