<?xml version="1.0" encoding="utf-8"?>
<!-- Generator: Adobe Illustrator 21.1.0, SVG Export Plug-In . SVG Version: 6.00 Build 0)  -->
<svg version="1.1" id="Layer_1" xmlns="http://www.w3.org/2000/svg" xmlns:xlink="http://www.w3.org/1999/xlink" x="0px" y="0px"
	 viewBox="0 0 1584 3144" style="enable-background:new 0 0 1584 3144;" xml:space="preserve">
<style type="text/css">
	.st0{clip-path:url(#SVGID_2_);}
	.st1{clip-path:url(#SVGID_4_);}
</style>
<g id="Artwork_6">
	<g>
		<defs>
			<rect id="SVGID_1_" x="106.5" y="506" width="1370.9" height="2132"/>
		</defs>
		<clipPath id="SVGID_2_">
			<use xlink:href="#SVGID_1_"  style="overflow:visible;"/>
		</clipPath>
		<g class="st0">
			<defs>
				<rect id="SVGID_3_" x="106.5" y="506" width="1370.9" height="2132"/>
			</defs>
			<clipPath id="SVGID_4_">
				<use xlink:href="#SVGID_3_"  style="overflow:visible;"/>
			</clipPath>
			<path class="st1" d="M1424.6,1813.3c-35.4-70.3-80.1-135.6-132.8-194.1c-55.7-61.6-116-118.9-180.4-171.4
				c-66.2-54.1-131.3-108.3-195.5-162.5c-63.6-53.8-124.8-109.8-181.3-166.3c-53.5-52.6-99-112.9-134.8-178.9
				c-33-60.1-50.2-116.1-51.2-165.6c-0.9-49.5,9-92.9,29.9-128.7c21-36.2,52.1-65.5,89.6-84.2c41.7-20.7,87.7-31,134.3-30.2
				c7,0,12.7-5.7,12.7-12.7c0-7-5.7-12.7-12.7-12.7c-84,0.1-167.7,11.4-248.7,33.6c-80,21.3-155.4,57.3-222.3,106
				c-66.6,49.5-121.7,113-161.3,186c-42.4,75.8-63.6,166.9-63.6,270.9c-0.6,79.2,17.4,157.4,52.5,228.4
				c35.4,70.3,80.1,135.5,132.8,193.9c55.7,61.6,116,118.9,180.5,171.4c66,54.1,131.6,108.8,196.9,163.9
				c64.6,54.8,125.6,110.7,181.3,166.3c53.3,52.8,99.2,112.6,136.3,177.8c30.8,59.9,47.1,115.7,48.1,165.6
				c1,49.9-9.1,92.9-29.9,128.8c-21.3,36.4-53,65.6-91,83.9c-41.3,20.3-86.7,30.7-132.7,30.2c-7,0-12.7,5.7-12.7,12.7
				c0,7,5.7,12.7,12.7,12.7c83.6-0.3,166.7-11.6,247.3-33.6c80.6-21.1,156.5-57,223.9-106c66.3-49.3,121.3-112.2,161.2-184.5
				c42-74.8,63.6-166.6,63.6-272.6C1477.9,1962.3,1459.8,1884.1,1424.6,1813.3"/>
			<path class="st1" d="M937.6,540.1c11.4,2.7,202.3,40.3,281.4,185.2c-130.7,5.9-234.9,113.7-234.9,245.9
				c0,136,110.2,246.2,246.2,246.2c136,0,246.2-110.2,246.2-246.2c0-2-0.1-4-0.1-6l0.1,0c0,0,18.8-360.4-536.1-450.1
				c-0.7,0-13.5-2.1-14.1,10.2C925.5,532.6,930.5,539.1,937.6,540.1"/>
			<path class="st1" d="M652.9,2603.7c-11.4-2.6-202.4-40.2-281.5-185.2c130.8-5.8,235-113.7,235-245.9
				c0-136-110.2-246.2-246.2-246.2s-246.2,110.2-246.2,246.2c0,2,0.1,4,0.1,6.1l-0.2-0.1c0,0-18.8,360.4,536.1,450.1
				c0.7,0,13.5,2.1,14.1-10.2C665,2611.3,660,2604.8,652.9,2603.7"/>
		</g>
	</g>
</g>
</svg>
