<?xml version="1.0" encoding="utf-8"?>
<!-- Generator: Adobe Illustrator 21.1.0, SVG Export Plug-In . SVG Version: 6.00 Build 0)  -->
<svg version="1.1" id="Layer_1" xmlns="http://www.w3.org/2000/svg" xmlns:xlink="http://www.w3.org/1999/xlink" x="0px" y="0px"
	 viewBox="0 0 765.7 419.9" style="enable-background:new 0 0 765.7 419.9;" xml:space="preserve">
<title>Asset 1Saiy_Vector</title>
<g>
	<path d="M186.5,185c-5-10-11.3-19.2-18.8-27.5c-7.9-8.7-16.4-16.8-25.5-24.3c-9.4-7.7-18.6-15.3-27.7-23
		c-9-7.6-17.7-15.5-25.7-23.5c-7.6-7.4-14-16-19.1-25.3C65.1,52.9,62.7,45,62.6,38s1.3-13.1,4.2-18.2c3-5.1,7.4-9.3,12.7-11.9
		c5.9-2.9,12.4-4.4,19-4.3c1,0,1.8-0.8,1.8-1.8c0-1-0.8-1.8-1.8-1.8C86.6,0,74.8,1.6,63.3,4.7c-11.3,3-22,8.1-31.5,15
		c-9.4,7-17.2,16-22.8,26.3C3,56.8,0,69.7,0,84.4c-0.1,11.2,2.5,22.3,7.4,32.3c5,9.9,11.3,19.2,18.8,27.4
		c7.9,8.7,16.4,16.8,25.5,24.3c9.3,7.7,18.6,15.4,27.9,23.2c9.1,7.8,17.8,15.7,25.7,23.5c7.5,7.5,14,15.9,19.3,25.2
		c4.4,8.5,6.7,16.4,6.8,23.4s-1.3,13.2-4.2,18.2c-3,5.1-7.5,9.3-12.9,11.9c-5.8,2.9-12.3,4.3-18.8,4.3c-1,0-1.8,0.8-1.8,1.8
		c0,1,0.8,1.8,1.8,1.8c11.8,0,23.6-1.6,35-4.8c11.4-3,22.2-8.1,31.7-15c9.4-7,17.2-15.9,22.8-26.1c6-10.6,9-23.6,9-38.6
		C194.1,206.1,191.5,195,186.5,185z"/>
	<path d="M117.6,4.8c1.6,0.4,28.6,5.7,39.8,26.2c-18.5,0.8-33.2,16.1-33.2,34.8c0,19.2,15.6,34.8,34.8,34.8
		c19.2,0,34.8-15.6,34.8-34.8c0-0.3,0-0.6,0-0.8l0,0c0,0,2.7-51-75.9-63.7c-0.1,0-1.9-0.3-2,1.4C115.9,3.8,116.6,4.7,117.6,4.8z"/>
	<path d="M77.3,296.9c-1.6-0.4-28.6-5.7-39.8-26.2c18.5-0.8,33.3-16.1,33.3-34.8c0-19.2-15.6-34.8-34.8-34.8
		c-19.2,0-34.8,15.6-34.8,34.8c0,0.3,0,0.6,0,0.9l0,0c0,0-2.7,51,75.9,63.7c0.1,0,1.9,0.3,2-1.5C79,297.9,78.3,297,77.3,296.9z"/>
</g>
<g>
	<path d="M411.5,296.4L411.5,296.4c-4.7,0.2-8.6-3.4-8.9-8c0-0.3,0-0.6,0-0.8v-141c0-8.3-2.4-16.5-6.9-23.5
		c-4.7-7.5-10.9-13.9-18.1-19c-8.1-5.6-17-9.9-26.4-12.6c-10.5-3.1-21.4-4.6-32.4-4.5c-1,0-1.8,0.7-1.9,1.7c0,1,0.7,1.8,1.7,1.9
		c4.9,0.5,8.2,5,10.1,13.7c2.1,11,3.1,22.3,3,33.5v123.1c0,14.2,2.3,24,6.9,30.1c4.7,6.1,13.3,9.2,25.3,9.2h47.5
		c1,0,1.8-0.8,1.8-1.8S412.5,296.4,411.5,296.4z"/>
	<path d="M330,278.9L330,278.9c-0.3,0-0.5,0.1-0.7,0.2c-0.1,0.1-0.2,0.1-0.3,0.2c-3.3,2.6-7.3,4.1-11.5,4.3c-0.4,0-0.8,0-1.1,0
		c-3.9,0-7.7-1.4-10.8-3.7c-3.8-2.8-7.1-7.3-9.8-13.3c-2.7-6.1-4.1-14.6-4.1-25c0-12.8,1.3-23.3,3.9-31.2c2.2-7,5.4-13.6,9.7-19.5
		c3.7-4.9,8-9.4,12.8-13.3c0.8-0.6,0.9-1.7,0.3-2.5c-0.3-0.4-0.9-0.7-1.4-0.7c-0.2,0-0.4,0-0.5,0.1l-29.5,9.2
		c-7.4,2.3-14.7,4.9-21.9,7.9c-7,2.9-13.6,6.7-19.5,11.3c-5.8,4.5-10.8,9.9-14.9,16c-4.1,6.2-6.7,13.8-7.5,22.5
		c-1.2,9.9-0.1,18.8,3.1,26.4c3,7.4,7.8,14,13.8,19.2c6.2,5.2,13.5,9,21.4,11c6,1.6,12.1,2.4,18.3,2.3c2.6,0,5.2-0.1,7.8-0.4
		c17-1.7,31.6-7.7,43.5-17.8c0.8-0.6,1-1.7,0.4-2.5C331.1,279.2,330.6,278.9,330,278.9z M313.9,178.6l0.4-0.2
		c-0.4,0.3-0.7,0.7-1.1,1L313.9,178.6z"/>
	<path d="M257,180.4c19.1,2.4,36.5-11.1,39-30.2c2.4-18.6-10.3-35.6-28.6-38.7c9.4-12.9,25.2-17.9,34.8-19.8
		c1.8-0.3,3.5-0.7,4.5-0.9c0.9-0.1,1.6-0.9,1.6-1.9c0-0.1,0-0.1,0-0.2c-0.1-0.9-0.9-1.6-1.8-1.5c-1.7,0-3.3,0-5,0.2
		c-71,6-74.5,53.1-74.5,53.1l0,0c0,0.3-0.1,0.6-0.1,0.9C224.4,160.5,237.9,177.9,257,180.4z"/>
</g>
<g>
	<path d="M763.8,86.9L763.8,86.9l-72.3,0c-1,0-1.8,0.8-1.8,1.8c0,1,0.8,1.8,1.8,1.8c4.8,0.2,9.2,2.8,11.7,6.9
		c9.6,15.6,24.1,56.2,24.1,56.2c0.4,0.9,1.5,1.3,2.4,0.9c0.4-0.2,0.7-0.5,0.9-0.9l28-57.3c0.1-0.2,0.3-0.6,0.4-0.9
		c1-2.5,2.3-4.8,4.8-4.8c1,0,1.8-0.8,1.8-1.8C765.6,87.7,764.8,86.9,763.8,86.9z"/>
	<path d="M629,95.3c-0.2-1.2,0-2.4,0.8-3.4c1-1.2,2.9-1.4,4.3-1.4c1,0,1.8-0.8,1.8-1.8c0-1-0.8-1.8-1.8-1.8h-82.2
		c-1,0-1.8,0.8-1.8,1.8c0,1,0.8,1.8,1.8,1.8c4.6,0,7.7,2.1,9.4,6.5l91.2,210.3c0.3,0.6,0.9,1.1,1.6,1.1c0.7,0,1.3-0.4,1.6-1
		l36.2-75.9c0.2-0.5,0.2-1.1,0-1.6C674.7,195.4,630,103.8,629,95.3z"/>
	<path d="M635.7,360.3c-0.1,0-0.2-0.1-0.2-0.1c-1-0.4-2,0.1-2.4,1c-0.8,1.4-13.2,26-35.9,31.2c4.2-18-6.5-36.3-24.5-41.4
		c-18.5-5.2-37.8,5.6-43,24.1s5.6,37.8,24.1,43c0.3,0.1,0.5,0.1,0.8,0.2l0,0c0,0,48.4,16.4,81.8-55.8
		C636.7,361.7,636.5,360.7,635.7,360.3z"/>
</g>
<g>
	<path d="M535,296.8c-4.6,0.3-8.6-3.3-8.9-7.9c0-0.3,0-0.6,0-0.9V145.2c-0.2-4.6,3.3-8.6,8-8.9c0.3,0,0.6,0,0.9,0
		c1,0,1.8-0.8,1.8-1.8c0-1-0.8-1.8-1.8-1.8h-88.6c-1,0-1.8,0.8-1.8,1.8c0,1,0.8,1.8,1.8,1.8c4.6-0.2,8.6,3.3,8.8,8
		c0,0.3,0,0.6,0,0.9V288c0.2,4.6-3.3,8.6-7.9,8.8c-0.3,0-0.6,0-0.9,0c-1,0-1.8,0.8-1.8,1.8s0.8,1.8,1.8,1.8H535c1,0,1.8-0.8,1.8-1.8
		c0,0,0,0,0,0C536.8,297.6,536,296.8,535,296.8z M446.8,134.6c-0.1,0-0.2-0.1-0.3-0.1L446.8,134.6L446.8,134.6z"/>
	<circle cx="490.7" cy="65.8" r="34.8"/>
</g>
</svg>
